<svg id="visual" viewBox="0 0 900 600" width="900" height="600" xmlns="http://www.w3.org/2000/svg" xmlns:xlink="http://www.w3.org/1999/xlink" version="1.1"><path d="M0 121L113 193L225 145L338 139L450 247L563 181L675 205L788 175L900 133L900 0L788 0L675 0L563 0L450 0L338 0L225 0L113 0L0 0Z" fill="#00921c"></path><path d="M0 379L113 391L225 319L338 367L450 439L563 463L675 349L788 367L900 337L900 131L788 173L675 203L563 179L450 245L338 137L225 143L113 191L0 119Z" fill="#069e34"></path><path d="M0 445L113 463L225 439L338 451L450 505L563 523L675 481L788 499L900 445L900 335L788 365L675 347L563 461L450 437L338 365L225 317L113 389L0 377Z" fill="#069e34"></path><path d="M0 601L113 601L225 601L338 601L450 601L563 601L675 601L788 601L900 601L900 443L788 497L675 479L563 521L450 503L338 449L225 437L113 461L0 443Z" fill="#00921c"></path></svg>